<svg xmlns="http://www.w3.org/2000/svg" xmlns:xlink="http://www.w3.org/1999/xlink" width="585" height="191" viewBox="0 0 585 191">
  <defs>
    <path id="fadeout-a" d="M164.584962,28.5622936 C113.933423,52.3541101 69.7082308,89.4136055 41.5895769,135.636312 L41.5895769,135.636312 C13.3678846,181.962037 1.25815385,237.553991 0.943615385,293.351982 L0.943615385,293.351982 C0.623653846,349.155394 12.2073462,405.061826 39.7999615,452.650881 L39.7999615,452.650881 C67.3871538,500.234514 110.983269,539.403174 161.846308,562.143119 L161.846308,562.143119 C212.709346,584.888486 270.730846,591.096697 325.699154,581.933486 L325.699154,581.933486 C380.672885,572.667257 432.479538,547.926587 471.552808,510.764073 L471.552808,510.764073 C510.512192,473.596138 536.732769,424.217817 550.529077,372.106798 L550.529077,372.106798 C557.589923,345.164789 561.375231,317.555872 561.445731,290.169257 L561.445731,290.169257 L561.445731,288.634826 C561.386077,263.44955 558.175615,238.470312 551.478115,214.385706 L551.478115,214.385706 C537.361846,163.749477 507.773538,117.000835 468.179654,79.203945 L468.179654,79.203945 C428.585769,41.407055 379.094769,12.5564954 325.807615,3.39870642 L325.807615,3.39870642 C312.873577,1.18110092 299.728038,0.118385321 286.506577,0.118385321 L286.506577,0.118385321 C245.144769,0.118385321 203.045423,10.5286606 164.584962,28.5622936"/>
    <linearGradient id="fadeout-b" x1="45.732%" x2="32.723%" y1="79.64%" y2="-8.225%">
      <stop offset="0%" stop-color="#179EFF" stop-opacity="0"/>
      <stop offset="100%" stop-color="#6BEDF2"/>
    </linearGradient>
    <path id="fadeout-d" d="M-9.22933197e-09,250.258468 C0.0765950173,224.357492 3.20620869,198.094404 9.41199115,172.319094 C29.0388407,90.7948491 79.5598053,14.3824528 142.736779,2.62086792 C205.973425,-9.027 281.936602,44.1004906 350.337637,77.0675849 C418.912265,110.083415 479.995274,123.052566 529.686248,167.342623 C579.268726,211.69766 617.52969,287.481906 609.33285,363.607302 C601.141434,439.732698 546.437965,516.372528 474.684416,548.121226 C402.99054,579.983642 314.186912,566.835792 234.296195,539.15383 C154.334956,511.358151 83.2920531,469.022943 42.1071327,404.626642 C14.2747995,361.106229 0.163718236,307.532789 -9.22933197e-09,252.207332 L-9.22933197e-09,250.258465"/>
    <linearGradient id="fadeout-e" x1="32.241%" x2="96.491%" y1="68.953%" y2="20.573%">
      <stop offset="0%" stop-color="#179EFF" stop-opacity="0"/>
      <stop offset="100%" stop-color="#6BEDF2"/>
    </linearGradient>
  </defs>
  <g fill="none" fill-rule="evenodd" opacity=".4" transform="rotate(-180 296.5 95.5)">
    <g transform="translate(49)">
      <mask id="fadeout-c" fill="#fff">
        <use xlink:href="#fadeout-a"/>
      </mask>
      <path fill="url(#fadeout-b)" d="M164.584962,28.5622936 C113.933423,52.3541101 69.7082308,89.4136055 41.5895769,135.636312 L41.5895769,135.636312 C13.3678846,181.962037 1.25815385,237.553991 0.943615385,293.351982 L0.943615385,293.351982 C0.623653846,349.155394 12.2073462,405.061826 39.7999615,452.650881 L39.7999615,452.650881 C67.3871538,500.234514 110.983269,539.403174 161.846308,562.143119 L161.846308,562.143119 C212.709346,584.888486 270.730846,591.096697 325.699154,581.933486 L325.699154,581.933486 C380.672885,572.667257 432.479538,547.926587 471.552808,510.764073 L471.552808,510.764073 C510.512192,473.596138 536.732769,424.217817 550.529077,372.106798 L550.529077,372.106798 C557.589923,345.164789 561.375231,317.555872 561.445731,290.169257 L561.445731,290.169257 L561.445731,288.634826 C561.386077,263.44955 558.175615,238.470312 551.478115,214.385706 L551.478115,214.385706 C537.361846,163.749477 507.773538,117.000835 468.179654,79.203945 L468.179654,79.203945 C428.585769,41.407055 379.094769,12.5564954 325.807615,3.39870642 L325.807615,3.39870642 C312.873577,1.18110092 299.728038,0.118385321 286.506577,0.118385321 L286.506577,0.118385321 C245.144769,0.118385321 203.045423,10.5286606 164.584962,28.5622936" mask="url(#fadeout-c)"/>
    </g>
    <g transform="translate(0 9)">
      <mask id="fadeout-f" fill="#fff">
        <use xlink:href="#fadeout-d"/>
      </mask>
      <path fill="url(#fadeout-e)" d="M350.337637,77.0675849 C418.912265,110.083415 479.995274,123.052566 529.686248,167.342623 C579.268726,211.69766 617.52969,287.481906 609.33285,363.607302 C601.141434,439.732698 546.437965,516.372528 474.684416,548.121226 C402.99054,579.983642 314.186912,566.835792 234.296195,539.15383 C154.334956,511.358151 83.2920531,469.022943 42.1071327,404.626642 C0.927637168,340.235755 -10.2148584,253.837925 9.41199115,172.319094 C29.0388407,90.7948491 79.5598053,14.3824528 142.736779,2.62086792 C205.973425,-9.027 281.936602,44.1004906 350.337637,77.0675849" mask="url(#fadeout-f)"/>
    </g>
  </g>
</svg>
