<?xml version="1.0" encoding="UTF-8"?>
<svg width="148px" height="32px" viewBox="0 0 148 32" version="1.1" xmlns="http://www.w3.org/2000/svg" xmlns:xlink="http://www.w3.org/1999/xlink">
    <!-- Generator: Sketch 64 (93537) - https://sketch.com -->
    <title>shopware_logo_blue</title>
    <desc>Created with Sketch.</desc>
    <g id="Symbols" stroke="none" stroke-width="1" fill="none" fill-rule="evenodd">
        <g id="shopware_logo_blue" fill="#189EFF" fill-rule="nonzero">
            <g id="XMLID_564_" transform="translate(37.600000, 10.400000)">
                <path d="M5.71388235,5.7744 C4.28235294,5.18976 3.10470588,4.65984 3.10470588,3.78144 C3.10470588,3.16512 3.84494118,2.58048 5.09294118,2.58048 C6.21247059,2.58048 7.17905882,2.84544 8.17317647,3.2544 C8.45458824,3.37248 8.88894118,3.40128 9.10611765,2.98944 L9.60470588,2.05056 C9.79129412,1.6992 9.63529412,1.28736 9.29270588,1.05408 C8.57694118,0.61344 7.08423529,0.0576 5.08988235,0.0576 C1.60282353,0.0576 0.177411765,2.05056 0.177411765,3.74976 C0.177411765,5.976 2.00964706,7.09056 4.21811765,8.02944 C6.20941176,8.87904 7.29835294,9.46368 7.29835294,10.37376 C7.29835294,11.13696 6.61317647,11.6928 5.39882353,11.6928 C3.68588235,11.6928 2.66117647,11.13696 1.82,10.69632 C1.44682353,10.49184 1.04305882,10.57824 0.887058824,10.872 L0.232470588,12.13344 C0.0764705882,12.4272 0.263058824,12.68928 0.480235294,12.83616 C1.29082353,13.3632 2.93952941,14.2128 5.21223529,14.2128 C8.41788235,14.2128 10.3480035,12.36672 10.3480035,10.25568 C10.3510588,7.73856 8.35976471,6.83136 5.71388235,5.7744 Z" id="XMLID_565_"></path>
            </g>
            <g id="XMLID_561_">
                <path d="M25.4500901,28.4021622 C24.0720721,27.3643243 22.0396396,26.5744144 19.889009,25.7412613 C17.329009,24.7495495 14.4259459,23.6223423 12.2464865,21.8897297 C9.77873874,19.9236036 8.57657658,17.4443243 8.57657658,14.3106306 C8.57657658,11.4969369 9.74414414,9.09261261 11.9524324,7.35423423 C14.4288288,5.40540541 18.1823423,4.37333333 22.8036036,4.37333333 C24.0807207,4.37333333 25.3001802,4.45117117 26.4302703,4.60684685 C26.5311712,4.62126126 26.6263063,4.56648649 26.6666667,4.47711712 C26.7099099,4.38486486 26.6868468,4.2781982 26.6118919,4.21189189 C23.7001802,1.59135135 19.9351351,0.14990991 16.0144144,0.14990991 C11.7765766,0.14990991 7.79243243,1.79891892 4.79423423,4.79711712 C1.79891892,7.79243243 0.147027027,11.7765766 0.147027027,16.0115315 C0.147027027,20.2493694 1.79603604,24.2335135 4.79423423,27.2288288 C7.78954955,30.2241441 11.7736937,31.876036 16.0144144,31.876036 C19.4392793,31.876036 22.6998198,30.8007207 25.4472072,28.7682883 C25.5048649,28.725045 25.5394595,28.6587387 25.5394595,28.5866667 C25.5394595,28.5145946 25.5077477,28.4454054 25.4500901,28.4021622 Z" id="XMLID_563_"></path>
                <path d="M31.8097297,14.547027 C31.803964,14.4864865 31.7751351,14.4288288 31.729009,14.3913514 C28.4194595,11.643964 25.7412613,10.5225225 22.4864865,10.5225225 C20.750991,10.5225225 19.4190991,10.8713514 18.5311712,11.5574775 C17.7614414,12.1513514 17.354955,12.9816216 17.354955,13.9531532 C17.354955,16.6774775 20.6846847,17.92 24.541982,19.3585586 C26.5282883,20.0994595 28.5837838,20.8663063 30.4691892,21.9127928 C30.5037838,21.932973 30.5412613,21.9416216 30.5787387,21.9416216 C30.6046847,21.9416216 30.6306306,21.9358559 30.6565766,21.9272072 C30.7171171,21.9041441 30.769009,21.858018 30.7920721,21.7945946 C31.5127928,19.9495495 31.8789189,18.0036036 31.8789189,16.0115315 C31.876036,15.5445045 31.8558559,15.0515315 31.8097297,14.547027 Z" id="XMLID_562_"></path>
            </g>
            <path d="M123.284927,24.6251852 C123.708563,24.5777778 124,24.2725926 124,23.8933333 L124,16.8207407 C124,13.202963 123.552328,10.4 118.829244,10.4 C116.116174,10.4 114.010015,11.122963 113.754632,11.2177778 C113.403105,11.3422222 113.180771,11.5644444 113.276915,12.0681481 L113.565348,13.2651852 C113.661492,13.6740741 113.94692,13.9585185 114.394592,13.8637037 C115.160741,13.6444444 116.819229,13.1703704 118.510766,13.1703704 C120.361542,13.1703704 120.935403,14.2103704 120.872308,16.5066667 C120.872308,16.5066667 119.436154,16.0651852 117.903856,16.0651852 C114.106159,16.0651852 112,18.08 112,20.7555556 C112,23.7777778 113.943916,24.8 116.72008,24.8 C118.985478,24.8 121.316975,24.7733333 122.287431,24.7111111 L123.284927,24.6251852 Z M120.839259,22.0592593 C120.391587,22.7822222 118.796194,22.6014815 117.426139,22.5748148 C115.893841,22.5422222 115.127692,22.0148148 115.127692,20.722963 C115.127692,19.2118519 116.434652,18.3318519 118.159239,18.3318519 C119.499249,18.3318519 120.649975,18.7111111 120.839259,18.8355556 L120.839259,22.0592593 Z" id="XMLID_558_"></path>
            <path d="M146.4,10.4 C147.284436,10.4 148,9.68473968 148,8.8 C148,7.91526032 147.284436,7.2 146.4,7.2 C145.515564,7.2 144.8,7.91526032 144.8,8.8 C144.8,9.68473968 145.515564,10.4 146.4,10.4 Z M146.4,7.43554758 C147.141324,7.43554758 147.748122,8.0502693 147.748122,8.8 C147.748122,9.5497307 147.144186,10.1644524 146.4,10.1644524 C145.658676,10.1644524 145.054741,9.5497307 145.054741,8.8 C145.054741,8.0502693 145.658676,7.43554758 146.4,7.43554758 Z" id="XMLID_555_"></path>
            <path d="M145.636675,9.6 L145.763814,9.6 C145.783374,9.6 145.800489,9.58010657 145.800489,9.55737123 L145.800489,8.97477798 L146.098778,8.97477798 L146.355501,9.57158082 C146.362836,9.59147425 146.375061,9.6 146.397066,9.6 L146.543765,9.6 C146.577995,9.6 146.59022,9.56305506 146.577995,9.53463588 L146.309046,8.95204263 C146.480196,8.87246892 146.6,8.6991119 146.6,8.48880995 C146.6,8.21598579 146.406846,8 146.172127,8 L145.636675,8 C145.61467,8 145.6,8.01989343 145.6,8.04262877 L145.6,9.55737123 C145.6,9.58010657 145.61467,9.6 145.636675,9.6 Z M145.805379,8.22166963 L146.155012,8.22166963 C146.282152,8.22166963 146.394621,8.34387211 146.394621,8.49449378 C146.394621,8.65364121 146.282152,8.77868561 146.155012,8.77868561 L145.805379,8.77868561 L145.805379,8.22166963 Z" id="XMLID_552_"></path>
            <path d="M57.1980014,10.0167111 C55.0766595,10.0167111 53.6234118,11.1744 53.3064954,11.4076444 L53.3064954,5.43715556 C53.3064954,5.11857778 52.9867238,4.8 52.6669522,4.8 L51.0395432,4.8 C50.6912206,4.8 50.4,5.11857778 50.4,5.43715556 L50.4,23.36 C50.4,23.7070222 50.6912206,23.9971556 51.0395432,23.9971556 L52.6384011,23.9971556 C53.0466809,23.9971556 53.3064954,23.7354667 53.3064954,23.36 L53.3064954,14.7072 C53.5977159,14.1297778 54.759743,12.7672889 56.8211278,12.7672889 C58.565596,12.7672889 59.4935046,14.0700444 59.4935046,16.2688 L59.4935046,23.3628444 C59.4935046,23.7098667 59.7847252,24 60.1330478,24 L61.7604568,24 C62.0802284,24 62.4,23.7098667 62.4,23.3628444 L62.4,16.3285333 C62.3971449,12.6819556 61.0038544,10.0167111 57.1980014,10.0167111 Z" id="XMLID_551_"></path>
            <path d="M91.9697781,16.8521559 C91.8033579,12.308905 89.8152309,10.4 85.2357038,10.4 C83.0365798,10.4 80.41249,11.0315602 80.0261574,11.1937176 C79.5506711,11.3900133 79.2,11.6232923 79.2,11.9419173 L79.2,12.2064899 L79.2,13.1765891 L79.2,16.3173211 L79.2,16.744051 L79.2,28.96275 C79.2,29.3098237 79.5031225,29.6 79.8656808,29.6 L81.2683653,29.6 C81.723049,29.6 81.9934818,29.3382723 81.9934818,28.96275 L81.99051,24.1520818 C82.4154759,24.2573418 84.5878538,24.4337235 86.4006452,24.3796711 C89.6339518,24.2829456 91.8033579,22.0355016 91.984637,18.2404504 C92.0084113,17.7226848 92.0054396,17.0057786 91.9697781,16.5392206 L91.9697781,16.8521559 Z M89.0485093,18.2376056 C88.9861018,20.8122092 88.2045212,21.9501556 85.9400178,22.0696399 C84.8196533,22.1293821 82.174761,21.8306712 82.174761,21.8306712 C82.0648048,21.7965328 81.99051,21.751015 81.99051,21.6542895 L81.9875382,16.4368055 L81.9875382,13.4781449 C81.9875382,13.3984887 82.0499458,13.3330567 82.1331559,13.3245222 C82.4451938,13.2932286 83.5893326,12.9404653 85.2357038,12.9404653 C87.9935242,12.9404653 88.9652992,13.327367 89.0544529,16.6700845 C89.0603965,17.1110387 89.0603965,17.7283746 89.0485093,18.2376056 Z" id="XMLID_548_"></path>
            <path d="M111.390846,10.6988403 L110.141796,10.6988403 C109.784924,10.6988403 109.278869,10.6988403 109.100433,11.1178026 L106.897776,19.0458596 L106.839272,19.0458596 L103.1477,10.7281384 C103.089197,10.5494201 102.878584,10.4 102.55389,10.4 L102.346202,10.4 C102.077086,10.4 101.869399,10.5494201 101.781643,10.7281384 L98.0578948,19.0165615 L97.9993912,19.0165615 L95.7382304,11.1178026 C95.6797269,10.8482604 95.381359,10.6988403 95.1444198,10.6988403 L93.3571374,10.6988403 C92.8803338,10.6988403 92.6726463,11.0562767 92.8803338,11.4752391 L96.8995252,24.4425636 C96.9580287,24.6505799 97.1686414,24.8 97.4640841,24.8 L97.6425198,24.8 C97.9408877,24.8 98.1193235,24.6505799 98.177827,24.4718616 L102.404706,15.1111292 L102.463209,15.1111292 L106.660836,24.4718616 C106.751517,24.6505799 106.959204,24.8 107.254647,24.8 L107.374579,24.8 C107.672947,24.8 107.939138,24.6505799 108.000567,24.4425636 L111.929078,11.4752391 C112.136765,11.0562767 111.867649,10.6988403 111.390846,10.6988403 Z" id="XMLID_525_"></path>
            <path d="M132.483197,10.4 C132.405996,10.4 132.334972,10.4059284 132.257771,10.4088925 C132.131162,10.4059284 132.007642,10.4 131.874857,10.4 C131.12138,10.4 130.398783,10.4237135 129.722507,10.4563195 L129.722507,10.4563195 C128.419362,10.5067106 127.647357,10.6015644 127.09769,10.6608481 C127.09769,10.6608481 126.745655,10.6934541 126.334949,10.7438452 C126.060115,10.7764512 125.859394,10.886126 125.735873,11.0372993 C125.652496,11.1232606 125.6,11.2329354 125.6,11.3663236 L125.6,11.4137505 L125.6,11.6894195 L125.6,12.7002058 L125.6,15.5043228 L125.6,24.1360231 C125.6,24.4976534 125.914978,24.8 126.291716,24.8 L127.73691,24.8 C128.332898,24.8 128.743604,24.7407163 128.743604,24.1360231 L128.743604,15.5043228 L128.743604,15.5043228 L128.743604,13.5242487 C128.743604,13.4412515 128.879477,13.3375051 128.95359,13.2930424 C129.308712,13.0885138 130.161006,12.9403047 131.874857,12.9403047 C132.04161,12.9403047 132.149691,12.9432688 132.273211,12.946233 C132.66539,12.9818032 133.286082,13.0974063 133.486803,13.2070811 C133.801781,13.3582544 134.17852,13.2663648 134.366889,12.8750926 L135.120366,11.6923837 C135.592833,10.7616303 133.86663,10.4 132.483197,10.4 Z" id="XMLID_482_"></path>
            <path d="M141.876772,10.4 C137.842176,10.4 135.2,13.7113553 135.2,17.585348 C135.2,21.5208791 137.842176,24.8 141.905305,24.8 C144.139456,24.8 145.911369,23.9648352 146.870085,23.1003663 C147.275256,22.7428571 147.161123,22.4732601 146.927151,22.1772894 L146.142488,20.9260073 C145.911369,20.5684982 145.648863,20.6564103 145.357824,20.8673993 C144.544628,21.4622711 143.614445,22.0307692 142.076505,22.0307692 C139.725368,22.0307692 138.098975,20.1230769 138.070441,18.2739927 L147.332323,18.2739927 C147.623362,18.2739927 147.911547,18.0336996 147.942934,17.6761905 C147.971467,17.4388278 148,16.9611722 148,16.7208791 C148,13.0549451 145.360678,10.4 141.876772,10.4 Z M138.218814,16.0644689 C138.4214,14.3355311 139.699688,12.9347985 141.819706,12.9347985 C143.794204,12.9347985 145.072492,14.3970696 145.129559,16.0644689 L138.218814,16.0644689 L138.218814,16.0644689 Z" id="XMLID_470_"></path>
            <path d="M76.3462207,14.6620016 C76.0437012,13.7744508 75.6184615,13.012856 75.0733556,12.3801465 C74.5282497,11.7474369 73.8746934,11.2582587 73.1183946,10.9155411 C72.3620959,10.5728234 71.2890078,10.4 70.398573,10.4 C69.5081382,10.4 68.4379041,10.5728234 67.6816054,10.9155411 C66.9253066,11.2582587 66.2746042,11.7474369 65.7266444,12.3801465 C65.1815385,13.012856 64.7562988,13.7744508 64.4537793,14.6620016 C64.1512598,15.5495525 64,16.5308381 64,17.6029292 C64,18.6925956 64.1512598,19.6768104 64.4537793,20.5555736 C64.7562988,21.4343369 65.1815385,22.1900732 65.7266444,22.8227828 C66.2717503,23.4554923 66.9253066,23.9446705 67.6816054,24.2873881 C68.4379041,24.6301058 69.5081382,24.8 70.398573,24.8 C71.2890078,24.8 72.3620959,24.6301058 73.1183946,24.2873881 C73.8746934,23.9446705 74.5253958,23.4554923 75.0733556,22.8227828 C75.6184615,22.1900732 76.0437012,21.4343369 76.3462207,20.5555736 C76.6487402,19.6768104 76.8,18.6925956 76.8,17.6029292 C76.8,16.5308381 76.6487402,15.5495525 76.3462207,14.6620016 Z M70.3243701,22.4273393 C67.9013601,22.4273393 66.6798662,20.3212368 66.6798662,17.7230269 C66.6798662,15.1248169 67.8985061,13.0187144 70.3243701,13.0187144 C72.7502341,13.0187144 73.968874,15.1248169 73.968874,17.7230269 C73.968874,20.3212368 72.7473802,22.4273393 70.3243701,22.4273393 Z" id="XMLID_463_"></path>
        </g>
    </g>
</svg>