<svg xmlns="http://www.w3.org/2000/svg" width="233" height="69" viewBox="0 0 233 69">
  <g fill="none" fill-rule="evenodd">
    <path fill="#000" d="M85.353 59.444C87.225 59.444 88.092 58.577 88.32 57.184 88.548 55.769 87.978 54.856 86.083 54.856L83.595 54.856 82.83 59.444 85.353 59.444zM82.385 53.6L86.334 53.6C89.073 53.6 90.055 55.107 89.713 57.184 89.456 58.725 88.554 59.946 86.973 60.46L88.822 65.288 87.179 65.288 85.467 60.716C85.369 60.722 85.273 60.722 85.17 60.722L82.619 60.722 81.859 65.288 80.445 65.288 82.385 53.6 82.385 53.6zM97.214 60.197C97.471 58.714 96.717 57.618 95.25 57.618 93.778 57.618 92.483 58.953 92.215 60.197L97.214 60.197zM90.754 60.973C91.193 58.28 93.088 56.408 95.456 56.408 97.288 56.408 99.045 57.526 98.492 60.791L98.401 61.362 92.027 61.362C91.701 63.507 92.603 64.26 94.292 64.26 95.37 64.26 96.215 63.804 96.711 62.891L97.944 63.256C97.311 64.58 95.872 65.47 94.086 65.47 91.558 65.47 90.303 63.667 90.754 60.973L90.754 60.973zM106.564 60.837C106.878 58.942 106.164 57.618 104.532 57.618 102.809 57.618 101.793 59.056 101.496 60.837 101.194 62.663 101.805 63.941 103.505 63.941 105.114 63.941 106.244 62.777 106.564 60.837zM99.487 67L100.697 66.247C100.971 66.731 101.348 67.571 102.957 67.571 104.361 67.571 105.536 66.909 105.787 65.448L106.062 63.667 105.947 63.667C105.582 64.146 104.869 65.151 103.162 65.151 101.034 65.151 99.693 63.598 100.15 60.859 100.589 58.166 102.409 56.408 104.623 56.408 106.336 56.408 106.712 57.458 106.929 57.915L107.067 57.915 107.294 56.522 108.596 56.522 107.111 65.539C106.735 67.798 104.886 68.757 102.797 68.757 100.828 68.757 99.893 67.919 99.487 67L99.487 67zM111.177 54.126C111.177 53.623 111.61 53.213 112.136 53.213 112.66 53.213 113.094 53.623 113.094 54.126 113.094 54.628 112.66 55.039 112.136 55.039 111.61 55.039 111.177 54.628 111.177 54.126zM111.051 56.522L112.398 56.522 110.937 65.288 109.59 65.288 111.051 56.522 111.051 56.522zM120.338 60.859C120.612 59.147 120.087 57.618 118.329 57.618 116.481 57.618 115.333 59.239 115.042 61.042 114.769 62.753 115.293 64.26 117.051 64.26 118.901 64.26 120.047 62.669 120.338 60.859zM113.741 60.859C114.175 58.166 116.024 56.408 118.353 56.408 120.772 56.408 122.09 58.257 121.64 61.042 121.205 63.713 119.357 65.47 117.028 65.47 114.609 65.47 113.296 63.622 113.741 60.859L113.741 60.859zM124.324 65.288L122.978 65.288 124.439 56.522 125.74 56.522 125.512 57.891 125.626 57.891C126.174 57.002 127.11 56.408 128.434 56.408 130.192 56.408 131.219 57.481 130.854 59.717L129.917 65.288 128.57 65.288 129.484 59.809C129.712 58.44 129.096 57.618 127.84 57.618 126.539 57.618 125.466 58.485 125.193 60.014L124.324 65.288M138.149 62.115L138.354 60.882C138.08 61.156 136.527 61.316 135.957 61.384 134.885 61.521 133.88 61.84 133.72 62.868 133.561 63.804 134.245 64.284 135.319 64.284 136.916 64.284 137.966 63.211 138.149 62.115zM132.373 62.799C132.716 60.791 134.542 60.425 136.208 60.22 137.829 60.014 138.491 60.06 138.606 59.422L138.606 59.376C138.788 58.257 138.331 57.595 137.099 57.595 135.82 57.595 134.953 58.28 134.542 58.919L133.355 58.463C134.291 56.865 135.889 56.408 137.213 56.408 138.331 56.408 140.386 56.727 139.929 59.512L138.971 65.288 137.623 65.288 137.829 64.1 137.761 64.1C137.396 64.672 136.459 65.493 134.93 65.493 133.264 65.493 132.1 64.511 132.373 62.799L132.373 62.799z"/>
    <polyline fill="#000" points="142.774 65.288 141.427 65.288 143.367 53.6 144.714 53.6 142.774 65.288"/>
    <path fill="#000" d="M154.75 57.595C155.481 57.161 155.984 56.727 156.12 55.928 156.211 55.335 155.755 54.65 154.91 54.65 154.02 54.65 153.273 55.426 153.152 56.157 153.044 56.807 153.432 57.464 153.895 58.166L154.75 57.595zM153.381 59.946L152.902 60.266C151.72 61.053 151.28 61.864 151.236 62.183 151.053 63.279 151.806 64.26 153.198 64.26 154.009 64.26 154.876 63.923 155.618 63.319L153.381 59.946zM149.865 62.183C150.088 60.768 151.184 59.889 152.707 58.942 152.069 57.971 151.641 57.173 151.806 56.134 152.057 54.559 153.358 53.486 155.07 53.486 156.828 53.486 157.718 54.628 157.489 55.928 157.307 57.048 156.571 57.818 155.504 58.531L154.551 59.165 156.571 62.269C156.971 61.681 157.267 60.973 157.399 60.174L158.699 60.174C158.42 61.84 157.78 62.771 157.267 63.331L158.54 65.288 156.919 65.288 156.263 64.294C155.372 65.071 154.111 65.448 153.038 65.448 150.733 65.448 149.546 64.078 149.865 62.183L149.865 62.183zM168.41 64.032C171.31 64.032 173.022 62.229 173.501 59.33 173.981 56.545 172.907 54.856 170.168 54.856L167.857 54.856 166.339 64.032 168.41 64.032zM164.712 65.288L166.652 53.6 170.373 53.6C173.775 53.6 175.464 55.838 174.848 59.512 174.254 63.119 171.926 65.288 168.364 65.288L164.712 65.288 164.712 65.288zM177.656 54.126C177.656 53.623 178.09 53.213 178.615 53.213 179.14 53.213 179.573 53.623 179.573 54.126 179.573 54.628 179.14 55.039 178.615 55.039 178.09 55.039 177.656 54.628 177.656 54.126zM177.53 56.522L178.877 56.522 177.416 65.288 176.069 65.288 177.53 56.522 177.53 56.522zM186.635 60.837C186.949 58.942 186.236 57.618 184.604 57.618 182.88 57.618 181.864 59.056 181.568 60.837 181.265 62.663 181.876 63.941 183.576 63.941 185.186 63.941 186.316 62.777 186.635 60.837zM179.559 67L180.769 66.247C181.042 66.731 181.419 67.571 183.028 67.571 184.433 67.571 185.608 66.909 185.86 65.448L186.133 63.667 186.019 63.667C185.653 64.146 184.941 65.151 183.234 65.151 181.106 65.151 179.764 63.598 180.221 60.859 180.66 58.166 182.481 56.408 184.694 56.408 186.406 56.408 186.783 57.458 187 57.915L187.137 57.915 187.365 56.522 188.667 56.522 187.183 65.539C186.807 67.798 184.957 68.757 182.868 68.757 180.9 68.757 179.964 67.919 179.559 67L179.559 67zM191.249 54.126C191.249 53.623 191.683 53.213 192.208 53.213 192.733 53.213 193.166 53.623 193.166 54.126 193.166 54.628 192.733 55.039 192.208 55.039 191.683 55.039 191.249 54.628 191.249 54.126zM191.123 56.522L192.47 56.522 191.009 65.288 189.662 65.288 191.123 56.522 191.123 56.522zM198.562 57.664L196.673 57.664 195.822 62.777C195.64 63.919 196.188 64.1 196.781 64.1 197.078 64.1 197.26 64.055 197.374 64.032L197.466 65.242C197.26 65.31 196.918 65.402 196.416 65.402 195.275 65.402 194.179 64.672 194.43 63.142L195.331 57.664 194.019 57.664 194.201 56.522 195.52 56.522 195.868 54.423 197.215 54.423 196.866 56.522 198.744 56.522 198.562 57.664M205.084 62.115L205.289 60.882C205.016 61.156 203.463 61.316 202.893 61.384 201.82 61.521 200.816 61.84 200.655 62.868 200.496 63.804 201.181 64.284 202.254 64.284 203.852 64.284 204.902 63.211 205.084 62.115zM199.309 62.799C199.652 60.791 201.478 60.425 203.144 60.22 204.765 60.014 205.427 60.06 205.541 59.422L205.541 59.376C205.724 58.257 205.267 57.595 204.034 57.595 202.756 57.595 201.889 58.28 201.478 58.919L200.29 58.463C201.227 56.865 202.824 56.408 204.149 56.408 205.267 56.408 207.321 56.727 206.864 59.512L205.906 65.288 204.559 65.288 204.765 64.1 204.696 64.1C204.331 64.672 203.395 65.493 201.865 65.493 200.199 65.493 199.035 64.511 199.309 62.799L199.309 62.799z"/>
    <polyline fill="#000" points="209.709 65.288 208.362 65.288 210.303 53.6 211.65 53.6 209.709 65.288"/>
    <path fill="#000" d="M87.144 37.929C87.914 37.929 88.557 37.673 89.135 37.191L89.135 27.624C88.557 27.174 87.946 26.95 87.24 26.95 85.281 26.95 83.805 28.748 83.805 32.568 83.805 36.099 85.186 37.929 87.144 37.929zM89.295 38.764C88.043 40.081 86.598 40.722 84.768 40.722 81.141 40.722 78.379 37.865 78.379 32.632 78.379 27.399 81.815 24.22 85.443 24.22 87.111 24.22 88.3 24.798 89.327 25.923L89.327 20.048 87.08 19.726 87.08 18.378 93.854 16.933 94.367 17.255 94.239 21.749 94.239 38.411 95.813 38.732 95.813 40.241 89.552 40.594 89.295 38.764 89.295 38.764zM108.304 32.504C108.304 27.945 107.405 25.923 105.608 25.923 103.777 25.923 102.878 27.945 102.878 32.504 102.878 37.062 103.777 39.053 105.608 39.053 107.405 39.053 108.304 37.062 108.304 32.504zM97.452 32.407C97.452 27.496 101.016 24.22 105.608 24.22 110.166 24.22 113.762 27.399 113.762 32.407 113.762 37.416 110.583 40.722 105.608 40.722 100.599 40.722 97.452 37.351 97.452 32.407L97.452 32.407z"/>
    <polyline fill="#000" points="133.959 24.734 139.802 24.734 139.802 26.147 138.004 26.436 133.092 40.305 130.685 40.305 126.992 29.967 123.332 40.305 120.925 40.305 115.852 26.372 114.44 26.147 114.44 24.734 122.883 24.734 122.883 26.147 121.021 26.404 123.526 34.655 126.35 26.436 124.456 26.147 124.456 24.734 132.321 24.734 132.321 26.147 130.556 26.436 133.189 34.43 135.789 26.436 133.959 26.147 133.959 24.734"/>
    <path fill="#000" d="M140.899 38.732L142.632 38.346C142.664 36.805 142.664 34.847 142.664 33.499L142.664 31.637C142.664 29.871 142.632 29.197 142.568 27.913L140.61 27.624 140.61 26.372 146.934 24.22 147.512 24.574 147.704 26.885C149.373 24.927 150.946 24.22 152.841 24.22 155.602 24.22 157.464 26.05 157.464 29.743L157.464 33.499C157.464 34.912 157.464 36.838 157.496 38.411L159.102 38.732 159.102 40.241 150.626 40.241 150.626 38.732 152.295 38.379C152.327 36.805 152.327 34.88 152.327 33.499L152.327 30.127C152.327 28.073 151.814 27.335 150.562 27.335 149.759 27.335 148.764 27.752 147.801 28.491L147.801 33.499C147.801 34.847 147.801 36.838 147.832 38.411L149.342 38.732 149.342 40.241 140.899 40.241 140.899 38.732M162.188 36.26C162.188 35.136 162.219 34.301 162.219 33.049L162.219 26.918 160.133 26.918 160.133 25.023 162.508 24.702 164.113 20.208 167.388 20.208 167.324 24.734 170.695 24.734 170.695 26.918 167.324 26.918 167.324 35.907C167.324 37.416 167.998 38.09 168.961 38.09 169.539 38.09 170.085 37.865 170.695 37.383L171.497 38.154C170.631 39.792 169.154 40.722 166.778 40.722 163.889 40.722 162.188 39.438 162.188 36.26M183.057 32.504C183.057 27.945 182.158 25.923 180.361 25.923 178.53 25.923 177.631 27.945 177.631 32.504 177.631 37.062 178.53 39.053 180.361 39.053 182.158 39.053 183.057 37.062 183.057 32.504zM172.205 32.407C172.205 27.496 175.77 24.22 180.361 24.22 184.919 24.22 188.515 27.399 188.515 32.407 188.515 37.416 185.336 40.722 180.361 40.722 175.352 40.722 172.205 37.351 172.205 32.407L172.205 32.407z"/>
    <polyline fill="#000" points="207.427 24.734 213.27 24.734 213.27 26.147 211.472 26.436 206.56 40.305 204.152 40.305 200.46 29.967 196.8 40.305 194.393 40.305 189.319 26.372 187.907 26.147 187.907 24.734 196.351 24.734 196.351 26.147 194.488 26.404 196.992 34.655 199.819 26.436 197.924 26.147 197.924 24.734 205.789 24.734 205.789 26.147 204.024 26.436 206.656 34.43 209.257 26.436 207.427 26.147 207.427 24.734"/>
    <path fill="#000" d="M214.367,38.732 L216.101,38.346 C216.133,36.805 216.133,34.847 216.133,33.499 L216.133,31.637 C216.133,29.871 216.101,29.197 216.036,27.913 L214.078,27.624 L214.078,26.372 L220.402,24.22 L220.981,24.574 L221.173,26.885 C222.842,24.927 224.415,24.22 226.31,24.22 C229.07,24.22 230.933,26.05 230.933,29.743 L230.933,33.499 C230.933,34.912 230.933,36.838 230.965,38.411 L232.57,38.732 L232.57,40.241 L224.095,40.241 L224.095,38.732 L225.764,38.379 C225.796,36.805 225.796,34.88 225.796,33.499 L225.796,30.127 C225.796,28.073 225.282,27.335 224.03,27.335 C223.228,27.335 222.233,27.752 221.27,28.491 L221.27,33.499 C221.27,34.847 221.27,36.838 221.301,38.411 L222.811,38.732 L222.811,40.241 L214.367,40.241 L214.367,38.732"/>
    <path fill="#FFC117" d="M34.106,29.76 L34.105,29.76 C26.259,22.384 22.336,16.529 22.336,12.196 C22.336,5.696 27.606,0.426 34.106,0.426 C40.606,0.426 45.875,5.696 45.875,12.196 C45.875,16.529 41.952,22.384 34.106,29.76 M34.106,5.965 C31.047,5.965 28.567,8.445 28.567,11.503 C28.567,14.562 31.047,17.043 34.106,17.043 C37.164,17.043 39.645,14.562 39.645,11.503 C39.645,8.445 37.164,5.965 34.106,5.965"/>
    <path fill="#66F" d="M23.028,66.683 C12.824,63.383 4.613,55.655 0.664,45.759 L16.305,31.574 C17.36,30.617 18.692,30.138 20.026,30.138 C21.339,30.138 22.652,30.603 23.701,31.534 L33.983,40.657 L24.846,48.945 C23.689,49.995 23.028,51.485 23.028,53.048 L23.028,66.683"/>
    <path fill="#55EBA7" d="M45.183,66.683 L45.183,53.085 C45.183,51.501 44.505,49.993 43.32,48.941 L33.983,40.657 L43.998,31.574 C45.053,30.617 46.386,30.138 47.719,30.138 C49.032,30.138 50.346,30.603 51.396,31.534 L67.516,45.837 C63.555,55.696 55.36,63.391 45.183,66.683"/>
    <path fill="#4D4DFF" d="M34.106,68.429 C33.191,68.429 32.283,68.391 31.386,68.324 L31.252,68.316 C30.411,68.251 29.582,68.149 28.759,68.026 C28.651,68.01 28.542,67.998 28.435,67.981 C27.674,67.861 26.925,67.709 26.181,67.542 C26.015,67.505 25.847,67.471 25.682,67.431 C24.982,67.263 24.292,67.068 23.609,66.86 C23.421,66.803 23.232,66.75 23.045,66.69 L23.028,66.683 L23.028,53.048 C23.028,51.485 23.689,49.995 24.846,48.945 L33.983,40.657 L43.32,48.941 C44.505,49.993 45.183,51.501 45.183,53.085 L45.183,66.683 L45.155,66.693 C44.964,66.755 44.77,66.809 44.576,66.868 C43.897,67.075 43.212,67.268 42.516,67.434 C42.349,67.475 42.178,67.508 42.01,67.546 C41.271,67.712 40.525,67.862 39.77,67.982 C39.659,68 39.547,68.012 39.437,68.028 C38.617,68.15 37.792,68.251 36.956,68.316 L36.816,68.325 C35.921,68.391 35.018,68.429 34.106,68.429"/>
    <path fill="#1156C6" d="M43.32,48.941 L33.983,40.657 L24.846,48.945 C23.689,49.995 23.028,51.485 23.028,53.048 L23.028,66.683 L23.045,66.69 C23.232,66.75 23.421,66.803 23.608,66.86 C24.292,67.068 24.982,67.263 25.682,67.431 C25.847,67.471 26.015,67.505 26.181,67.542 C26.925,67.709 27.674,67.861 28.435,67.981 C28.542,67.998 28.651,68.01 28.759,68.026 C29.582,68.149 30.411,68.251 31.252,68.316 L31.386,68.324 C32.283,68.391 33.191,68.429 34.106,68.429 C35.018,68.429 35.921,68.391 36.816,68.325 L36.956,68.316 C37.792,68.251 38.617,68.15 39.437,68.028 C39.547,68.012 39.659,68 39.77,67.982 C40.525,67.862 41.271,67.712 42.01,67.546 C42.178,67.508 42.349,67.475 42.516,67.434 C43.212,67.268 43.897,67.075 44.576,66.868 C44.77,66.809 44.964,66.755 45.155,66.693 L45.183,66.683 L45.183,53.085 C45.183,51.501 44.505,49.993 43.32,48.941"/>
  </g>
</svg>
