<svg width="24" height="24" viewBox="0 0 24 24" version="1.1" xmlns="http://www.w3.org/2000/svg"><g class="nc-icon-wrapper" stroke="none" fill="#111111"><g id="icons/regular/phone" stroke="none" stroke-width="1" fill="none" fill-rule="evenodd"><path d="M9.417 9.18c.601 1.027 1.425 2.065 2.472 3.113 1.048 1.048 2.086 1.87 3.114 2.472l1.472-1.472a1 1 0 0 1 1.222-.15l5 3a1 1 0 0 1 .343 1.372l-1.876 3.125a4 4 0 0 1-4.609 1.764c-3.266-1.008-6.294-2.911-9.08-5.697a27.94 27.94 0 0 1-6.179-9.31 4 4 0 0 1 2.44-5.302l3.13-1.044a1 1 0 0 1 1.174.435l3 5a1 1 0 0 1-.15 1.221L9.416 9.18zm11.393 8.163l-3.473-2.084-1.448 1.448a1 1 0 0 1-1.154.188c-1.436-.718-2.855-1.782-4.26-3.188-1.405-1.405-2.47-2.824-3.187-4.26a1 1 0 0 1 .187-1.154l1.448-1.448-2.186-3.643-2.368.79a2 2 0 0 0-1.22 2.652 25.94 25.94 0 0 0 5.74 8.649c2.564 2.564 5.314 4.292 8.256 5.2a2 2 0 0 0 2.304-.882l1.361-2.268z" id="Shape" fill="#111111"></path></g></g></svg>