<svg width="24" height="24" viewBox="0 0 24 24" version="1.1" xmlns="http://www.w3.org/2000/svg"><g class="nc-icon-wrapper" stroke="none" fill="#111111"><g id="icons/regular/truck" stroke="none" stroke-width="1" fill="none" fill-rule="evenodd"><path d="M24 10.405V16a2 2 0 0 1-2 2h-.035a3.5 3.5 0 0 1-6.93 0h-5.07a3.5 3.5 0 0 1-6.93 0H2a2 2 0 0 1-2-2V5a2 2 0 0 1 2-2h13a2 2 0 0 1 2 2v1h2.314a3 3 0 0 1 1.92.695L22.921 8.1A3 3 0 0 1 24 10.405zM22 11v-.595a1 1 0 0 0-.36-.768l-1.686-1.405a1 1 0 0 0-.64-.232H17v3h5zm-5 2v1.337A3.5 3.5 0 0 1 21.663 16H22v-3h-5zm-2 3V5H2v11h1.337a3.5 3.5 0 0 1 6.326 0H15zm-8.5 3a1.5 1.5 0 1 0 0-3 1.5 1.5 0 0 0 0 3zm12 0a1.5 1.5 0 1 0 0-3 1.5 1.5 0 0 0 0 3z" id="Shape" fill="#111111"></path></g></g></svg>